# xmcd CD database file
#
# Track frame offsets:
#	150
#	18547
#	36787
#	48366
#	68887
#	86806
#	106988
#	123049
#
# Disc length: 1796 seconds
#
# Revision: 3
# Processed by: cddbd v1.5.2PL0 Copyright (c) Steve Scherf et al.
# Submitted via: CDex 1.51
#
DISCID=62070208
DTITLE=Gabriel Wilson - Lovely Is Death
DYEAR=2006
DGENRE=Acoustic
TTITLE0=Burning Like Cigarettes
TTITLE1=Come Home
TTITLE2=Old Record
TTITLE3=G-thing
TTITLE4=Lovely Is Death
TTITLE5=Isn't She...?
TTITLE6=Who My Friends Are
TTITLE7=If You Don't Know Where It Is You've Gone
EXTD=YEAR: 2006
EXTT0=
EXTT1=
EXTT2=
EXTT3=
EXTT4=
EXTT5=
EXTT6=
EXTT7=
PLAYORDER=
